<svg xmlns="http://www.w3.org/2000/svg" viewBox="0 0 660 760" width="660" height="760">
  <style>
    .bg { fill: #ffffff; }
    .parcel { fill: #d94a4a; fill-opacity: .15; stroke: #c0392b; stroke-width: 2.5; }
    .dim { font: 12px "DejaVu Sans", sans-serif; fill: #333; }
    .note { font: 13px "DejaVu Sans", sans-serif; fill: #444; }
    .title { font: bold 16px "DejaVu Sans", sans-serif; fill: #111; }
    .mono { font: 11px "DejaVu Sans Mono", monospace; fill: #555; }
    .sectionline { stroke: #3b6ea5; stroke-width: 1.8; stroke-dasharray: 10 6; }
    .tie { stroke: #c0392b; stroke-width: 1.2; stroke-dasharray: 3 3; }
  </style>
  <rect class="bg" x="0" y="0" width="660" height="760"/>
  <text class="title" x="150" y="38">Exhibit &#8220;A&#8221; &#8212; NW 1/4, Section 15, T8S R7E</text>
  <text class="note" x="150" y="60">Bedford Township, Monroe County, Michigan</text>
  <text class="note" x="150" y="80">0.915 acres &#183; 39,852 sq ft &#183; closes to 0.01 ft</text>

  <line class="sectionline" x1="26" y1="130.00" x2="634" y2="130.00"/>
  <text class="mono" x="26" y="120.00">north line of Sec. 15 &#8212; Erie Rd</text>

  <polygon class="parcel" points="497.51,130.01 156.28,130.16 150.00,670.00 497.49,670.00"/>
  <text x="326.90" y="152.08" text-anchor="middle" class="dim">S 89°58'30" W  157.98'</text>
    <text x="147.14" y="400.08" text-anchor="middle" class="dim" transform="rotate(-90 147.14 400.08)">S 00°40'00" W  249.95'</text>
    <text x="323.75" y="694.00" text-anchor="middle" class="dim">Due East  160.88'</text>
    <text x="503.50" y="400.00" text-anchor="middle" class="dim" transform="rotate(90 503.50 400.00)">Due North  250.00'</text>

  <line class="tie" x1="497.51" y1="130.01" x2="514.14" y2="130.00"/>
  <circle cx="514.14" cy="130.00" r="5" fill="#111"/>
  <text class="mono" x="525.14" y="150.00">N 1/4 cor.</text>
  <text class="mono" x="525.14" y="164.00">Sec. 15</text>
  <circle cx="497.51" cy="130.01" r="5" fill="#c0392b"/>
  <text class="mono" x="485.51" y="118.01" text-anchor="end">P.O.B.</text>
  <text class="mono" x="485.51" y="104.01" text-anchor="end">7.7' W of N 1/4 cor.</text>

  <g transform="translate(604,668)">
    <path d="M0,-28 L8,9 L0,2 L-8,9 Z" fill="#111"/>
    <text class="mono" x="0" y="26" text-anchor="middle">N</text>
  </g>
  <g transform="translate(150,720)">
    <line x1="0" y1="0" x2="216.00" y2="0" stroke="#111" stroke-width="2"/>
    <line x1="0" y1="-5" x2="0" y2="5" stroke="#111" stroke-width="2"/>
    <line x1="216.00" y1="-5" x2="216.00" y2="5" stroke="#111" stroke-width="2"/>
    <text class="mono" x="108.00" y="18" text-anchor="middle">100 feet</text>
  </g>
</svg>
